<svg width="136" height="136" viewBox="0 0 136 136" fill="none" xmlns="http://www.w3.org/2000/svg">
<path d="M73.6666 119L85 113.333L96.3333 119V79.3333H73.6666M96.3333 51V39.6667L85 45.3333L73.6666 39.6667V51L62.3333 56.6667L73.6666 62.3333V73.6667L85 68L96.3333 73.6667V62.3333L107.667 56.6667M113.333 17H22.6666C19.6609 17 16.7782 18.194 14.6528 20.3195C12.5274 22.4449 11.3333 25.3275 11.3333 28.3333V85C11.3333 88.0058 12.5274 90.8885 14.6528 93.0139C16.7782 95.1393 19.6609 96.3333 22.6666 96.3333H62.3333V85H22.6666V28.3333H113.333V85H107.667V96.3333H113.333C116.339 96.3333 119.222 95.1393 121.347 93.0139C123.473 90.8885 124.667 88.0058 124.667 85V28.3333C124.667 25.3275 123.473 22.4449 121.347 20.3195C119.222 18.194 116.339 17 113.333 17ZM62.3333 45.3333H28.3333V34H62.3333M51 62.3333H28.3333V51H51M62.3333 79.3333H28.3333V68H62.3333V79.3333Z" fill="black"/>
</svg>
