<svg width="136" height="136" viewBox="0 0 136 136" fill="none" xmlns="http://www.w3.org/2000/svg">
<path d="M45.3333 79.3335V25.5002C45.3333 21.7429 43.8408 18.1396 41.184 15.4828C38.5272 12.8261 34.9239 11.3335 31.1667 11.3335C27.4094 11.3335 23.8061 12.8261 21.1493 15.4828C18.4925 18.1396 17 21.7429 17 25.5002V79.3335M45.3333 45.3335L79.3333 17.0002L124.667 51.0002M113.333 22.6668V79.3335M68 79.3335H90.6667V56.6668H68V79.3335ZM68 79.3335L39.6667 124.667M11.3333 79.3335H124.667M11.3333 124.667L39.6667 79.3335M124.667 124.667H68L96.3333 79.3335M85 102H124.667" stroke="black" stroke-width="11.3333" stroke-linecap="round" stroke-linejoin="round"/>
</svg>
