<svg width="136" height="136" viewBox="0 0 136 136" fill="none" xmlns="http://www.w3.org/2000/svg">
<path d="M119 37.7778V22.6667C119 10.2 111.35 0 102 0H79.3333C74.97 0 71.0033 2.26667 68 5.89333C64.9967 2.26667 61.03 0 56.6667 0H34C24.65 0 17 10.2 17 22.6667V37.7778C7.65 37.7778 0 47.9778 0 60.4444V98.2222C0 110.689 7.65 120.889 17 120.889V136H28.3333V120.889H107.667V136H119V120.889C128.35 120.889 136 110.689 136 98.2222V60.4444C136 47.9778 128.35 37.7778 119 37.7778ZM79.3333 15.1111H102C105.117 15.1111 107.667 18.5111 107.667 22.6667V43.6711C104.21 47.8267 102 53.7956 102 60.4444V75.5556H73.6667V22.6667C73.6667 18.5111 76.2167 15.1111 79.3333 15.1111ZM28.3333 22.6667C28.3333 18.5111 30.8833 15.1111 34 15.1111H56.6667C59.7833 15.1111 62.3333 18.5111 62.3333 22.6667V75.5556H34V60.4444C34 53.7956 31.79 47.8267 28.3333 43.6711V22.6667ZM124.667 98.2222C124.667 102.378 122.117 105.778 119 105.778H17C13.8833 105.778 11.3333 102.378 11.3333 98.2222V60.4444C11.3333 56.2889 13.8833 52.8889 17 52.8889C20.1167 52.8889 22.6667 56.2889 22.6667 60.4444V90.6667H113.333V60.4444C113.333 56.2889 115.883 52.8889 119 52.8889C122.117 52.8889 124.667 56.2889 124.667 60.4444V98.2222Z" fill="black"/>
</svg>
