<svg width="136" height="136" viewBox="0 0 136 136" fill="none" xmlns="http://www.w3.org/2000/svg">
<path d="M38.25 29.75C24.225 29.75 12.75 41.225 12.75 55.25C12.75 63.682 16.9022 71.1875 23.2432 75.837C12.036 81.396 4.25 92.922 4.25 106.25H12.75C12.75 92.123 24.123 80.75 38.25 80.75C52.377 80.75 63.75 92.123 63.75 106.25H72.25C72.25 92.123 83.623 80.75 97.75 80.75C111.877 80.75 123.25 92.123 123.25 106.25H131.75C131.75 92.9178 123.964 81.396 112.757 75.837C116.003 73.474 118.646 70.3777 120.469 66.8003C122.292 63.2228 123.245 59.2653 123.25 55.25C123.25 41.225 111.775 29.75 97.75 29.75C83.725 29.75 72.25 41.225 72.25 55.25C72.25 63.682 76.4023 71.1875 82.7432 75.837C76.5332 78.8893 71.3932 83.7508 68 89.7812C64.6068 83.7508 59.4668 78.8893 53.2568 75.837C56.5031 73.474 59.1456 70.3777 60.9691 66.8003C62.7925 63.2228 63.7453 59.2653 63.75 55.25C63.75 41.225 52.275 29.75 38.25 29.75ZM38.25 38.25C47.6978 38.25 55.25 45.8022 55.25 55.25C55.25 64.6978 47.6978 72.25 38.25 72.25C28.8022 72.25 21.25 64.6978 21.25 55.25C21.25 45.8022 28.8022 38.25 38.25 38.25ZM97.75 38.25C107.198 38.25 114.75 45.8022 114.75 55.25C114.75 64.6978 107.198 72.25 97.75 72.25C88.3022 72.25 80.75 64.6978 80.75 55.25C80.75 45.8022 88.3022 38.25 97.75 38.25Z" fill="black"/>
</svg>
