<svg width="136" height="136" viewBox="0 0 136 136" fill="none" xmlns="http://www.w3.org/2000/svg">
<path d="M74.3538 9.27351C74.8698 9.48638 75.3388 9.79882 75.7341 10.193C76.1294 10.5871 76.4431 11.0553 76.6574 11.5707C76.8717 12.0862 76.9824 12.6388 76.9831 13.197C76.9838 13.7552 76.8745 14.308 76.6615 14.824C74.5578 19.924 72.1268 31.4203 74.9233 44.0088C77.9556 43.5881 81.0424 43.8081 83.9843 44.6548C85.5361 42.147 87.5835 39.9823 90.0011 38.2933C92.4186 36.6043 95.1555 35.4265 98.0441 34.8321C100.933 34.2377 103.912 34.2391 106.8 34.8362C109.688 35.4334 112.424 36.6137 114.84 38.305C117.256 39.9963 119.301 42.1628 120.851 44.6721C122.4 47.1814 123.421 49.9805 123.851 52.8981C124.281 55.8157 124.111 58.7903 123.352 61.6399C122.592 64.4895 121.259 67.1541 119.434 69.4705C122.455 73.2896 124.096 78.018 124.092 82.8878C124.094 86.0082 123.422 89.0922 122.12 91.9283C120.819 94.7644 118.919 97.2854 116.552 99.3183C117.985 101.932 118.864 104.814 119.132 107.782C119.401 110.751 119.055 113.744 118.114 116.572C117.174 119.401 115.66 122.005 113.668 124.223C111.675 126.44 109.246 128.222 106.534 129.458C103.821 130.693 100.882 131.356 97.9017 131.405C94.9212 131.453 91.9627 130.886 89.2112 129.739C86.4598 128.592 83.9746 126.889 81.911 124.738C79.8475 122.587 78.2499 120.033 77.2183 117.236C72.0254 117.476 66.9195 115.841 62.8315 112.629C58.7435 109.418 55.9458 104.845 54.9483 99.7433C54.6933 99.7518 54.434 99.756 54.1705 99.756C51.1591 99.7553 48.1809 99.1269 45.4259 97.9109C42.6708 96.695 40.1995 94.9182 38.1694 92.6939C36.1394 90.4696 34.5952 87.8466 33.6354 84.9922C32.6756 82.1378 32.3212 79.1148 32.5949 76.1158C32.8686 73.1168 33.7643 70.2078 35.2249 67.5743C36.6856 64.9408 38.679 62.6407 41.0782 60.8206C43.4773 59.0005 46.2295 57.7004 49.1591 57.0032C52.0887 56.3061 55.1315 56.2271 58.0933 56.7715C58.912 54.9071 59.9893 53.1673 61.2935 51.6035L45.186 57.5195C42.1287 58.6422 38.8801 59.1516 35.6259 59.0186C32.3717 58.8857 29.1755 58.113 26.2199 56.7447C23.2643 55.3764 20.6072 53.4394 18.4003 51.0441C16.1934 48.6488 14.4799 45.8423 13.3578 42.7848L36.635 34.238C42.023 32.2631 47.9289 32.2162 53.3476 34.1054C58.7663 35.9945 63.3629 39.7029 66.3553 44.5995C63.529 30.4598 66.2788 17.697 68.8033 11.5813C69.0162 11.0652 69.3286 10.5962 69.7228 10.2009C70.1169 9.80569 70.5851 9.49195 71.1005 9.27764C71.6159 9.06334 72.1685 8.95268 72.7267 8.95197C73.2849 8.95126 73.8378 9.06052 74.3538 9.27351ZM56.2785 65.0845C53.8587 64.693 51.3776 64.9846 49.1144 65.9265C46.8512 66.8684 44.8958 68.4232 43.4682 70.416C42.0407 72.4087 41.1975 74.7603 41.0337 77.2062C40.87 79.6521 41.392 82.0951 42.5411 84.2604C43.6903 86.4257 45.4209 88.2273 47.5383 89.4626C49.6557 90.6978 52.0757 91.3176 54.5262 91.2523C56.9767 91.1869 59.3603 90.439 61.4088 89.0927C63.4573 87.7463 65.0894 85.855 66.1215 83.6315C63.0439 81.6272 60.526 78.8737 58.8043 75.6295C57.0826 72.3852 56.2134 68.7567 56.2785 65.0845ZM74.0265 86.785C71.8888 91.6423 68.0497 95.5509 63.2315 97.7755C63.5773 99.844 64.4118 101.8 65.6658 103.481C66.9197 105.162 68.5569 106.52 70.4411 107.441C72.3253 108.361 74.4021 108.819 76.4989 108.776C78.5956 108.732 80.6518 108.189 82.4963 107.191C84.3408 106.193 85.9203 104.769 87.1037 103.038C88.287 101.306 89.0399 99.3171 89.2998 97.2361C89.5596 95.155 89.3189 93.042 88.5977 91.0727C87.8764 89.1034 86.6955 87.3347 85.153 85.9138C81.5838 87.1704 77.7478 87.4708 74.0265 86.785ZM92.616 81.4173C95.949 85.2645 97.8156 90.1656 97.886 95.2553C100.553 96.2344 103.466 96.3246 106.189 95.5124C108.912 94.7002 111.299 93.0292 112.994 90.7488C114.69 88.4684 115.602 85.701 115.595 82.8595C115.588 80.018 114.663 77.255 112.957 74.9828C110.453 76.3714 107.701 77.2525 104.857 77.5755C102.012 77.8986 99.1324 77.6573 96.3815 76.8655C95.3444 78.5507 94.077 80.0827 92.616 81.4173ZM99.3523 68.8585C100.338 69.0937 101.361 69.2127 102.421 69.2155C104.69 69.2154 106.92 68.6292 108.896 67.5135C110.872 66.3979 112.526 64.7907 113.698 62.8478C114.87 60.9049 115.52 58.6922 115.586 56.4241C115.651 54.156 115.129 51.9095 114.071 49.9023C113.013 47.8951 111.454 46.1954 109.546 44.9679C107.637 43.7403 105.444 43.0266 103.179 42.8959C100.914 42.7652 98.6532 43.2219 96.6164 44.2218C94.5796 45.2217 92.8356 46.7309 91.5535 48.603C94.5227 50.9929 96.8076 54.1249 98.1771 57.6819C99.5466 61.2388 99.952 65.0945 99.3523 68.8585ZM102.421 104.559C100.358 104.56 98.306 104.266 96.3263 103.687C94.2889 108.721 90.443 112.811 85.544 115.154C86.265 116.776 87.3064 118.236 88.6057 119.446C89.905 120.655 91.4353 121.59 93.1049 122.193C94.7744 122.797 96.5487 123.057 98.3212 122.957C100.094 122.858 101.828 122.401 103.419 121.615C105.011 120.829 106.427 119.729 107.583 118.381C108.739 117.034 109.611 115.467 110.146 113.774C110.681 112.082 110.868 110.298 110.697 108.531C110.526 106.764 109.999 105.05 109.149 103.492C107.028 104.185 104.771 104.559 102.421 104.559ZM64.7785 65.467C64.7471 67.2163 65.0645 68.9542 65.7122 70.5794C66.3599 72.2047 67.3248 73.6845 68.5508 74.9327C69.7767 76.1809 71.239 77.1723 72.8523 77.849C74.4657 78.5258 76.1976 78.8743 77.9472 78.8743C79.6967 78.8743 81.4287 78.5258 83.042 77.849C84.6553 77.1723 86.1176 76.1809 87.3436 74.9327C88.5695 73.6845 89.5345 72.2047 90.1822 70.5794C90.8298 68.9542 91.1472 67.2163 91.1158 65.467C91.0538 62.0154 89.6391 58.7262 87.1763 56.3072C84.7134 53.8882 81.3993 52.5328 77.9472 52.5328C74.495 52.5328 71.1809 53.8882 68.7181 56.3072C66.2552 58.7262 64.8405 62.0154 64.7785 65.467Z" fill="black"/>
</svg>
