<svg width="136" height="136" viewBox="0 0 136 136" fill="none" xmlns="http://www.w3.org/2000/svg">
<path d="M65.1667 11.3333C63.58 11.3333 62.3334 12.58 62.3334 14.1666V39.6666C61.9367 39.6666 61.4834 39.6666 61.0867 39.8366C55.6467 41.1966 52.19 45.3333 49.64 50.3767C47.0334 55.3067 45.3334 61.4267 45.3334 68C45.6167 85 45.3334 102.17 45.3334 119C45.3334 122.117 47.8834 124.667 51 124.667H85C88.1167 124.667 90.6667 122.117 90.6667 119C90.8934 102 90.6667 85 90.6667 68C90.6667 61.4267 89.1934 55.3066 86.5867 50.32C84.0367 45.3333 80.58 41.1966 75.14 39.8933C74.6867 39.6666 73.95 39.6666 73.6667 39.6666V14.1666C73.6667 12.58 72.42 11.3333 70.8334 11.3333M68 50.15C69.8134 50.15 71.57 50.4333 72.42 51C72.8167 51.17 74.8 52.4733 76.5 55.59C78.0867 58.7633 79.3334 63.2966 79.3334 68V113.333H56.6667V68C56.6667 63.2966 57.9134 58.7633 59.5 55.59C61.2 52.4733 63.1834 51.17 63.58 51C64.3734 50.4333 66.1867 50.15 68 50.15Z" fill="black"/>
</svg>
