<svg width="136" height="136" viewBox="0 0 136 136" fill="none" xmlns="http://www.w3.org/2000/svg">
<path d="M36.3509 88.5457L25.9177 125.13M11.5017 121.011L40.324 129.229M21.1674 58.3926L39.9646 8.55829L75.4509 18.6611L65.1343 70.924C64.5306 74.0469 63.2843 77.0102 61.4744 79.6258C59.6645 82.2413 57.3306 84.4521 54.6208 86.1176C51.911 87.7831 48.8845 88.867 45.7335 89.3005C42.5824 89.734 39.3757 89.5077 36.3168 88.6358C33.2579 87.764 30.4137 86.2657 27.9647 84.236C25.5157 82.2064 23.5155 79.6898 22.0909 76.8459C20.6664 74.002 19.8486 70.893 19.6897 67.7163C19.5307 64.5396 20.0339 61.3645 21.1674 58.3926Z" stroke="black" stroke-width="8" stroke-linecap="round" stroke-linejoin="round"/>
<path d="M30.5806 33.3977L70.2731 44.812" stroke="black" stroke-width="8"/>
<path d="M83.2222 87.0692C87.351 89.1062 91.9971 89.854 96.5566 89.2154C101.116 88.5768 105.378 86.5814 108.788 83.4885C112.199 80.3956 114.6 76.3483 115.679 71.8727C116.759 67.3971 116.467 62.7002 114.842 58.3926L96.0256 8.55829L90.4302 10.1417M99.649 88.5457L110.082 125.13M124.498 121.011L95.6759 129.229M105.419 33.5143L89.2062 38.1771" stroke="black" stroke-width="8" stroke-linecap="round" stroke-linejoin="round"/>
</svg>
